<svg xmlns="http://www.w3.org/2000/svg" width="40" height="40" viewBox="0 0 165.52 105.97">
  <path d="M150.7 0H13.12c-.47 0-.95.01-1.42.03C10.66.04 9.6.1 8.58.3A9.93 9.93 0 0 0 .3 8.59a20.65 20.65 0 0 0-.28 3.1L0 13.14v79.7l.02 1.43c.03 1.04.1 2.08.28 3.11a9.9 9.9 0 0 0 5.32 7.31c.95.48 1.92.79 2.96.98 1.03.18 2.08.24 3.12.27a79.18 79.18 0 0 0 3.12.03H152.4l1.43-.03a21 21 0 0 0 3.1-.27 9.88 9.88 0 0 0 7.3-5.33c.5-.95.8-1.92 1-2.96.18-1.03.24-2.07.27-3.11l.02-1.43V13.12l-.02-1.42a20.64 20.64 0 0 0-.28-3.12A9.97 9.97 0 0 0 156.94.3a20.84 20.84 0 0 0-3.11-.26L152.39 0h-1.7z"/>
	<path fill="#FFF" d="M150.7 3.53h1.67l1.36.03c.8.02 1.72.06 2.58.21a6.4 6.4 0 0 1 5.43 5.44c.16.86.2 1.79.22 2.58.02.45.02.9.02 1.36v79.67c0 .45 0 .9-.02 1.35a17 17 0 0 1-.22 2.6 6.4 6.4 0 0 1-5.42 5.43c-.88.15-1.85.2-2.57.21l-1.38.02H13.14c-.45 0-.9 0-1.35-.02a18 18 0 0 1-2.58-.22 6.94 6.94 0 0 1-1.99-.65 6.34 6.34 0 0 1-2.8-2.8c-.3-.6-.51-1.23-.65-1.99-.15-.86-.2-1.78-.22-2.57l-.02-1.36V13.15l.02-1.36c.03-.79.07-1.71.23-2.58a6.37 6.37 0 0 1 3.45-4.78c.6-.31 1.23-.52 1.98-.65.86-.16 1.79-.2 2.58-.22.45-.02.9-.02 1.36-.02H150.7"/>
	<path d="M45.19 35.64a9.24 9.24 0 0 0 2.12-6.58 9.16 9.16 0 0 0-6.07 3.14c-1.32 1.52-2.48 4-2.18 6.33 2.33.2 4.66-1.17 6.13-2.89m2.1 3.34c-3.39-.2-6.26 1.92-7.88 1.92-1.61 0-4.09-1.82-6.76-1.77a9.97 9.97 0 0 0-8.48 5.15c-3.64 6.27-.96 15.56 2.57 20.66 1.72 2.52 3.79 5.3 6.51 5.2 2.58-.1 3.59-1.66 6.72-1.66s4.03 1.66 6.76 1.61c2.83-.05 4.6-2.52 6.31-5.05 1.97-2.88 2.77-5.65 2.83-5.8-.06-.06-5.46-2.13-5.5-8.34-.06-5.2 4.23-7.68 4.44-7.83-2.43-3.58-6.21-3.99-7.52-4.09m29.44-7.04c7.35 0 12.47 5.07 12.47 12.45 0 7.4-5.22 12.5-12.65 12.5h-8.14v12.94h-5.88V31.94h14.2zm-8.32 20h6.75c5.12 0 8.03-2.75 8.03-7.53 0-4.77-2.91-7.5-8-7.5H68.4v15.04zm22.33 10.04c0-4.83 3.7-7.8 10.27-8.17l7.56-.44v-2.13c0-3.07-2.08-4.9-5.54-4.9-3.29 0-5.33 1.57-5.83 4.03h-5.36c.32-4.98 4.57-8.66 11.4-8.66 6.7 0 10.97 3.54 10.97 9.08v19.04h-5.43v-4.54h-.13c-1.6 3.07-5.1 5.01-8.72 5.01-5.4 0-9.19-3.36-9.19-8.32zm17.83-2.5v-2.17l-6.8.42c-3.39.23-5.3 1.73-5.3 4.1 0 2.4 1.99 3.98 5.03 3.98 3.97 0 7.07-2.73 7.07-6.33zm10.77 20.51v-4.6c.42.1 1.37.1 1.84.1 2.62 0 4.04-1.1 4.9-3.93 0-.05.5-1.68.5-1.7l-9.97-27.65h6.14l6.99 22.47h.1l6.99-22.47h5.98l-10.34 29.06c-2.36 6.7-5.1 8.85-10.82 8.85-.47 0-1.89-.05-2.3-.13z"/>
</svg>