<svg xmlns="http://www.w3.org/2000/svg" width="600" height="600">
  <g clip-path="url(#a)">
    <g style="display:block">
      <path d="m100.06 581.03 21.26-165.1h-6.14l-21.25 165.1h6.13zm136.42 0-21.25-165.1h6.13l21.25 165.1h-6.13z"/>
      <path fill="#63C634" d="M283.24 408.18c0 6.53-5.3 11.83-11.83 11.83H104.18a22.47 22.47 0 0 1-21.23-15.1l-54-155.55a13.6 13.6 0 0 1 12.85-18.07h78.64c6.13 0 11.5 4.1 13.12 10.01l41.78 155.04h96.07a11.8 11.8 0 0 1 11.83 11.84z"/>
      <path fill="none" stroke="#000" stroke-miterlimit="10" stroke-width="1.5" d="M102.1 420.01 43.17 249.36A13.6 13.6 0 0 1 56 231.29m37.93 165.06h81.41"/>
    </g>
    <path fill="#FEA300" d="M-119.16-99.83s24.07 26.67 55.1 26.49c31.04-.18 68.93-12.09 68.93-12.09l3.69 44.94s-78.93 15.17-112.67 5.14c-33.74-10.02-46.55-47.05-46.55-47.05" style="display:block" transform="translate(300 300)"/>
    <g style="display:block">
      <path fill="#FFF" d="M178.54 142.17c1.03 21.9-12.63 42.25-33.22 43.2-20.58.97-40.3-17.82-41.31-39.72-1.03-21.9 14.83-40.43 35.41-41.39 20.59-.96 38.1 16.01 39.12 37.91z"/>
      <path fill="#FEA300" d="M159.5 314.93a63.6 63.6 0 1 1-28.36-124 63.6 63.6 0 0 1 28.37 124z"/>
      <path fill="none" stroke="#000" stroke-miterlimit="10" stroke-width="1.5" d="M202.37 224.77a63.6 63.6 0 0 1-42.87 90.15"/>
      <path fill="#E28D05" d="M117.54 276.35c3.87 3.68 9.62 4.74 14.95 4.28 5.32-.46 10.43-2.24 15.61-3.53a86.54 86.54 0 0 1 31.15-1.94c1.21.14 2.71.57 2.91 1.78.2 1.24-1.13 2.13-2.28 2.64a165.83 165.83 0 0 1-35 11.4c-6.73 1.39-13.65 2.36-20.45 1.43-6.8-.93-13.55-3.96-17.79-9.36-3.64-4.64-5.17-10.63-5.57-16.52-.33-4.72.03-9.49 1.02-14.11.63-2.94 1.05-7.28 4.96-6.95 3.17.26 4.68 2.8 4.84 5.66.26 4.46-.18 8.93.41 13.38.58 4.33 1.99 8.75 5.24 11.84z"/>
      <path fill="none" stroke="#000" stroke-miterlimit="10" stroke-width="1.5" d="M114.1 197.5c9.08 13.64 31.22 22.8 42.64 18.63 10.58-3.86 11.7-13.4 6.7-24.18"/>
      <path fill="#FFF" d="M157.51 190.49a15.04 15.04 0 0 1-28.89 1.07 63.35 63.35 0 0 1 28.89-1.08z"/>
      <path fill="none" stroke="#000" stroke-linecap="round" stroke-linejoin="round" stroke-width="1.5" d="M178.54 142.17c1.03 21.9-12.63 42.25-33.22 43.2-20.58.97-40.3-17.82-41.31-39.72-1.03-21.9 14.83-40.43 35.41-41.39 20.59-.96 38.1 16.01 39.12 37.91z"/>
      <path fill="#FFF" d="M91.6 154.5a11.65 11.65 0 0 0 23.28 0 11.63 11.63 0 0 0-22.07-5.15 11.43 11.43 0 0 0-1.22 5.14z"/>
      <path fill="none" stroke="#000" stroke-linecap="round" stroke-linejoin="round" stroke-width="1.5" d="M114.22 150.64a11.63 11.63 0 0 0-21.4-1.3 11.65 11.65 0 0 0 17.81 14.15"/>
      <path d="M103.75 142.56s7.32 2.32 10.91 8.88c0 0 25.34-2.97 30.2-23.81 4.85-20.85-13.21-41.34-32.71-36.4-19.5 4.95-10.96 25.34-10.96 25.34s-11.5.81-12.5 12.94c-.98 12.13 6.43 16.38 6.43 16.38 2.3-2.3 5.11-3.55 8.63-3.33z"/>
      <path d="M126.57 101.2a28.77 28.77 0 1 0 57.55 0 28.77 28.77 0 0 0-57.55 0z"/>
      <path fill="none" stroke="#000" stroke-linecap="round" stroke-linejoin="round" stroke-width="1.5" d="M152.32 139.15c-1.73-1.07-4.9-.46-6.16 2.24M171.9 133c-1.73-1.07-4.9-.46-6.17 2.24m-6.1 1.66s3.5 13.26 7.91 17.97c4.42 4.72-8.82 8.1-8.82 8.1m-6.25 6.87s-3.33 3.5-9.4 0"/>
    </g>
    <g style="display:block">
      <path fill="#F6F6F6" d="M310.57 159.12s-15.17-1.73-33.37 23.57c-18.19 25.31-30.85 57.56-30.85 57.56l78.45 2.83 29.39-46.99-1.01-16.24s-22.44-23.06-42.6-20.73z"/>
      <path fill="none" stroke="#000" stroke-miterlimit="10" stroke-width="1.5" d="M310.57 159.12s-15.17-1.73-33.37 23.57c-18.19 25.31-30.85 57.56-30.85 57.56l78.45 2.83 29.39-46.99-1.01-16.24s-22.44-23.06-42.6-20.73z"/>
      <path d="m201.72 319.2 40.84-85.25 121.48 5.1-52.7 86.6-109.62-6.45z"/>
    </g>
    <g style="display:block">
      <path fill="#FEA300" d="m303.17 518.92 15.04 52.95a12.67 12.67 0 0 0 15.7 8.66l47.9-13.85a10.81 10.81 0 0 0 7.38-13.51 23.54 23.54 0 0 0-11.28-13.99 23.53 23.53 0 0 0-18-2.03l-2.97.86a14.18 14.18 0 0 1-17.56-9.68l-5.05-18.42-31.16 9.01z"/>
      <path fill="#ECEDEB" d="M357.4 543.98a23.39 23.39 0 0 0 31.9 14.89 10.8 10.8 0 0 0-.12-5.7 23.54 23.54 0 0 0-11.27-13.98 23.53 23.53 0 0 0-18-2.04l-3.4.98c.04 1.93.34 3.9.9 5.85z"/>
      <path d="M389.56 555.11a10.84 10.84 0 0 1-7.75 11.57l-47.9 13.86a12.67 12.67 0 0 1-14.14-5.25l69.79-20.18zm-80.78-15.84-5.6-20.34 31.14-9 5.62 20.34-31.16 9zm42.51 2.67.42.08c.63.11 1.23-.3 1.34-.92l.52-2.81c.12-.63-.3-1.23-.92-1.34l-.43-.08c-.62-.12-1.22.3-1.33.92l-.52 2.81c-.12.63.3 1.23.92 1.34zm-3.93-1.42.43.08c.62.12 1.22-.3 1.34-.92l.52-2.81c.11-.62-.3-1.22-.92-1.34l-.43-.08c-.63-.11-1.22.3-1.34.92l-.52 2.82c-.11.62.3 1.22.92 1.33zm-3.92-1.42.42.09c.63.11 1.23-.3 1.34-.92l.52-2.82c.12-.62-.3-1.22-.92-1.34l-.43-.07c-.62-.12-1.22.3-1.34.92l-.52 2.8c-.11.63.3 1.23.93 1.35z"/>
      <path fill="#FEA300" d="M206.17 490.12 179.02 538a12.67 12.67 0 0 0 4.85 17.26l43.49 24.4a10.81 10.81 0 0 0 14.8-4.24 23.54 23.54 0 0 0 2.04-17.84 23.53 23.53 0 0 0-11.19-14.26l-2.7-1.51a14.18 14.18 0 0 1-5.42-19.3l9.56-16.52-28.28-15.87z"/>
      <path fill="#ECEDEB" d="M226.4 546.33a23.38 23.38 0 0 0 11.78 33.18c1.61-.95 3-2.33 3.97-4.09a23.54 23.54 0 0 0 2.05-17.84 23.53 23.53 0 0 0-11.2-14.26l-3.08-1.73a23.23 23.23 0 0 0-3.52 4.74z"/>
      <path d="M241.03 577.05c-3.27 4-9.02 5.22-13.68 2.6l-43.49-24.39a12.68 12.68 0 0 1-6.18-13.75l63.35 35.54zm-45.42-68.65 10.55-18.27 28.28 15.86-10.55 18.28-28.28-15.87zm27.94 32.15.24.36c.36.52 1.07.66 1.6.3l2.36-1.6c.53-.36.67-1.07.31-1.6l-.24-.36a1.15 1.15 0 0 0-1.6-.3l-2.37 1.6a1.15 1.15 0 0 0-.3 1.6zm-1.75-3.79.24.36c.36.52 1.07.66 1.6.3l2.37-1.6c.52-.36.66-1.07.3-1.6l-.24-.36a1.15 1.15 0 0 0-1.6-.3l-2.36 1.6a1.15 1.15 0 0 0-.31 1.6zm-1.75-3.8.25.36c.35.53 1.07.67 1.6.31l2.36-1.6c.53-.36.66-1.07.3-1.6l-.24-.36a1.15 1.15 0 0 0-1.6-.3l-2.36 1.6a1.15 1.15 0 0 0-.3 1.6z"/>
      <path fill="#727EF4" d="M157 318.51c-23.69-.36-35.25 20.9-36.38 44.57-.89 18.39 9.3 30.87 18.48 33.27h115.7s28.57 136.92 40.34 137.14c9.28.17 52.67-7.73 51.24-21.21-1.2-11.35-28.15-173.94-46.97-184.1-19.33-10.44-142.4-9.67-142.4-9.67z"/>
      <path fill="#4A61D8" d="m259.13 322.58-52.05 73.5h24.21l27.84-73.5zm56.97 55.7-37.17 114.9-14.98-57.45 52.15-57.45z"/>
      <path fill="#727EF4" d="M231.3 396.08c14.6-38.83 28.28-74.7 28.28-74.7l-106.27-2.74s91.98-17.61 129.93-22.97c16.84-2.37 40.03-.65 45.09 33.3 5.05 33.93-77.94 187.44-81.46 193.05-7.02 11.2-52.93-18.6-50.15-30.92 1.42-6.28 18.55-52.43 34.57-95.02"/>
      <path fill="none" stroke="#000" stroke-miterlimit="10" stroke-width="1.5" d="M318.23 372.66c-11.68 31.54-31.1 71.93-46.75 102.78m-40.18-79.36c14.6-38.83 28.28-74.7 28.28-74.7l-84.24-2.17"/>
    </g>
    <g style="display:block">
      <path fill="#FFF" d="M187.2 269.7s13.14-5.1 17.69-8.23c4.55-3.14 8.97-10.32 12.85-8.33 3.88 2-2 8.8-2 8.8s13-9.35 16.36-7.07c3.37 2.28-3.32 7.61-3.32 7.61s7.56-4.08 9.1-.7c1.53 3.37-3.32 5.92-3.32 5.92s5.87-1.52 6.52 1.49c.65 3-7.06 8.19-7.06 8.19s5.94-.94 3.29 4.92c-2.66 5.85-30.98 18.98-37.8 20.94l-12.3-33.54z"/>
      <path fill="none" stroke="#000" stroke-linecap="round" stroke-linejoin="round" stroke-width="1.5" d="M187.2 269.7s13.14-5.1 17.69-8.23c4.55-3.14 8.97-10.32 12.85-8.33 3.88 2-2 8.8-2 8.8s13-9.35 16.36-7.07c3.37 2.28-3.32 7.61-3.32 7.61s7.56-4.08 9.1-.7c1.53 3.37-3.32 5.92-3.32 5.92s5.87-1.52 6.52 1.49c.65 3-7.06 8.19-7.06 8.19s5.94-.94 3.29 4.92c-2.66 5.85-30.98 18.98-37.8 20.94l-12.3-33.54z"/>
      <path fill="none" stroke="#000" stroke-linecap="round" stroke-linejoin="round" stroke-width="1.5" d="M215.74 261.94s-6.15 3.55-7.71 4.42m20.75-3.88s-13.78 8.64-17.64 9.85m23.42-4.63s-15.61 9.79-18.65 10.34m18.11-.66s-12.11 6.66-14.46 7.34"/>
      <path fill="#FEA300" d="M106.96 201.94c-29.99 29.19-35.05 78.52-10.68 104.43 33.16 35.25 110.34-4.86 110.34-4.86l-13.45-38.03s-56 31.7-72.54 15.32c-9.13-9.04-8.08-25.9-5.3-39.19a46.47 46.47 0 0 0-8.37-37.67z"/>
      <path fill="none" stroke="#000" stroke-miterlimit="10" stroke-width="1.5" d="M193.17 263.48s-56 31.7-72.54 15.32c-9.13-9.04-8.08-25.9-5.3-39.19"/>
    </g>
    <path d="M152.67 146.94c.21 2.05-.8 3.84-2.28 4-1.48.16-2.85-1.38-3.07-3.43-.22-2.05.8-3.83 2.28-4 1.47-.15 2.85 1.39 3.07 3.43zm19.57-6.14c.22 2.04-.8 3.83-2.28 3.99-1.47.16-2.84-1.38-3.06-3.42-.22-2.05.8-3.84 2.27-4 1.48-.16 2.86 1.38 3.07 3.42z" style="display:block"/>
    <g style="display:block">
      <path fill="#FFF" d="M424.37 581.03c10.12-42.25 7.54-144-6.67-178.89-14.93-36.65-51.6-94.82-66.93-171.86-11.74-58.91-32.92-70.57-40.17-71.16 10.6-.3 83.4-1.3 87.44-.48 38.7 7.94 51.03 41.18 57.9 72.31 3.75 17.02 5.87 33.41 9.77 44.7 5.6 16.17 18.92 36.96 33.27 58.3 18.34 27.23 38.36 55.35 46.12 75.77 15.42 40.55 27.6 171.3 27.6 171.3H424.37z"/>
      <path fill="#FEA300" d="M505.76 386.1s-7.43-25.07-20.83-25.07c-13.4 0-11.77 15.84-24.08 14.35-12.32-1.5-29.5-33.26-42.76-15.96l17.9 36.66 69.77-9.97z"/>
      <path fill="none" stroke="#000" stroke-miterlimit="10" stroke-width="1.5" d="M505.76 386.1s-7.43-25.07-20.83-25.07c-13.4 0-11.77 15.84-24.08 14.35-12.32-1.5-29.5-33.26-42.76-15.96"/>
      <path fill="none" stroke="#000" stroke-miterlimit="10" stroke-width="1.5" d="M424.37 581.03c10.11-42.25 7.54-144-6.67-178.89-14.93-36.65-51.6-94.82-66.94-171.86-11.73-58.9-32.91-70.58-40.16-71.16 10.59-.3 83.4-1.31 87.44-.49 59.85 12.28 56.63 85.08 67.67 117.02 12.73 36.81 65.55 97.66 79.4 134.07 15.4 40.55 27.59 171.3 27.59 171.3M452.19 216.13l-103.9 2.93m131.76 85.48-102.12 12m163.73 85.22-118.8 13.96m141.74 94.19L429.66 524.6"/>
    </g>
    <path fill="none" stroke="#000" stroke-linecap="round" stroke-linejoin="round" stroke-width="1.5" d="M56.47-97.34s-9.2-18.4 4.87-20.02C75.42-119 83.18-95.9 94.36-97.34c11.19-1.44 11-29.23 23.28-26.16" style="display:block" transform="translate(300 300)"/>
    <path d="M404.24 180.92a4.01 4.01 0 1 1 8.03 0 4.01 4.01 0 0 1-8.03 0zm-15.34 20.1a4.02 4.02 0 1 1 8.03 0 4.02 4.02 0 0 1-8.03 0zm-33.56-18.68a4.01 4.01 0 1 1 8.03 0 4.01 4.01 0 0 1-8.03 0z" style="display:block"/>
    <path fill="none" stroke="#000" stroke-miterlimit="10" stroke-width="1.5" d="m365.13 235.61 75.96-3.3m-73.42 14.09 62.52-3.3m-59.99 14.09 43.54-3.3m-40.99 14.09 41.35-3.3m-38.81 14.09 45.07-3.3" style="display:block"/>
    <path fill="none" stroke="#000" stroke-miterlimit="10" stroke-width="1.5" d="m109.43 41.68 26.55 54.4 73.85-10.55" style="display:block" transform="translate(300 300)"/>
    <g style="display:block">
      <path fill="#E5E5E5" d="m468.05 504.97-17.68 2.23-6.23-34.17 17.68-2.22 6.23 34.16z"/>
      <path fill="#ECEDEB" d="m494.45 501.64-17.68 2.23-9.45-51.9 17.68-2.22 9.45 51.9z"/>
      <path fill="#E5E5E5" d="m520.86 498.32-17.68 2.22-4-21.88 17.69-2.22 3.99 21.88z"/>
      <path fill="#ECEDEB" d="m547.26 495-17.68 2.22-11.37-62.39 17.68-2.23 11.37 62.4z"/>
    </g>
    <g style="display:block">
      <path d="M489.44 275.72z"/>
      <path fill="#727EF4" d="M489.44 275.72z"/>
      <path fill="#63C634" d="M489.44 275.72z"/>
      <path fill="#ECEDEB" d="M489.44 275.72z"/>
    </g>
    <g style="display:block">
      <path fill="#EC4E84" d="M492.32 272.68z"/>
      <path fill="none" d="M492.32 272.68z"/>
    </g>
    <g style="display:block">
      <path fill="#727EF4" d="m278.62 144.79-28.3 3.12v-47.43l28.3-1v45.3z"/>
      <path d="m246.82 146.79 3.5 1.12v-47.43l-3.5 2v44.3z"/>
      <path fill="#EC4E84" d="m321 137.6-24.37 2.5V58.86l24.38.88v77.85z"/>
      <path d="m293.71 137.6 2.92 2.5V58.86l-2.92 1.88v76.85z"/>
      <path fill="#63C634" d="m355.93 134.7-21.22 2.3V86.5l21.22-.33v48.53z"/>
      <path d="m332.35 134.7 2.36 2.3V86.5l-2.36 1.67v46.53z"/>
      <path fill="#FEA300" d="m390.1 128.55-18.63 1.85V42.37l18.64 1.36v84.82z"/>
      <path d="m368.84 128.55 2.63 1.85V42.37l-2.63 2.36v83.82z"/>
    </g>
    <path fill="none" stroke="#000" stroke-miterlimit="10" stroke-width="1.5" d="M-39.74-211.85c.04-7.47.46-14.92 1.98-22.17 2.3-10.9 7.33-21.35 15.7-27.62 7.38-5.53 16.85-7.3 25.64-5.62 8.52 1.63 16.4 6.4 22.55 12.8 3.89 4.04 7.16 8.75 11.2 12.31 4 3.51 9.09 5.82 13.61 4.22 3.32-1.17 5.85-4.27 7.65-7.7 1.78-3.4 2.97-7.2 4.5-10.73 4-9.17 10.33-16.39 17.72-20.36" style="display:block" transform="translate(300 300)"/>
    <path d="M74.43-276.72a5.25 5.25 0 1 0 10.5 0 5.25 5.25 0 0 0-10.5 0z" style="display:block" transform="translate(300 300)"/>
  </g>
</svg>
